<?xml version="1.0" encoding="utf-8"?>
<!-- Generator: Adobe Illustrator 16.0.0, SVG Export Plug-In . SVG Version: 6.00 Build 0)  -->
<!DOCTYPE svg PUBLIC "-//W3C//DTD SVG 1.1//EN" "http://www.w3.org/Graphics/SVG/1.1/DTD/svg11.dtd">
<svg version="1.1" id="Слой_1" xmlns="http://www.w3.org/2000/svg" xmlns:xlink="http://www.w3.org/1999/xlink" x="0px" y="0px"
	 width="440px" height="217.5px" viewBox="0 0 440 217.5" enable-background="new 0 0 440 217.5" xml:space="preserve">
<path opacity="0.5" fill="#BA7C2B" enable-background="new    " d="M26.788,7.827C17.357,8.709,8.412,9.859,8.412,30.353
	s3.246,49.969,30.233,52.571c26.764,2.579,357.587,7.332,367.893-0.234c10.302-7.566,22.389-50.006,11.734-62.752
	C404.324,3.256,38.138,6.766,26.788,7.827z"/>
<path fill="#FDE1B0" d="M24.867,4.26C15.184,5.143,6,6.291,6,26.786c0,20.493,3.332,49.967,31.038,52.568
	c27.475,2.582,362.088,7.333,372.665-0.232c10.576-7.566,22.986-50.005,12.047-62.751C407.433-0.312,36.519,3.197,24.867,4.26z"/>
<path fill="#FBAB2B" d="M280.539,78.5c-104.087,0-227.275-2.663-242.604-4.122C20.244,72.69,12.004,57.457,12.004,26.695
	c0-15.855,4.602-16.342,13.772-17.189C29.194,9.189,75.4,8.441,138.699,8.441c48.627,0,118.956,0.411,177.848,2.439
	c65.789,2.269,88.785,5.707,96.787,7.725c2.908,0.73,5.239,3.021,5.938,6.016c0.861,3.688,0.973,8.737,0.278,14.661
	c-1.793,15.262-8.477,31.648-13.11,35.599c-2.97,0.856-20.735,3.619-125.869,3.619H280.539z"/>
<path opacity="0.5" fill="#BA7C2B" enable-background="new    " d="M26.788,119.827c-9.431,0.882-18.376,2.032-18.376,22.525
	s3.246,49.969,30.233,52.571c26.764,2.579,357.587,7.332,367.893-0.234c10.302-7.566,22.389-50.006,11.734-62.752
	C404.324,115.256,38.138,118.766,26.788,119.827z"/>
<path fill="#FDE1B0" d="M24.867,116.26C15.184,117.143,6,118.291,6,138.786c0,20.493,3.332,49.967,31.038,52.568
	c27.475,2.582,362.088,7.333,372.665-0.232c10.576-7.566,22.986-50.005,12.047-62.751C407.433,111.688,36.519,115.197,24.867,116.26
	z"/>
<linearGradient id="SVGID_1_" gradientUnits="userSpaceOnUse" x1="216.0034" y1="120.4414" x2="216.0034" y2="191.554">
	<stop  offset="0" style="stop-color:#FBAB2B"/>
	<stop  offset="1" style="stop-color:#F08B21"/>
</linearGradient>
<path fill="url(#SVGID_1_)" d="M280.539,190.5c-104.087,0-227.275-2.663-242.604-4.122c-17.692-1.688-25.932-16.921-25.932-47.683
	c0-15.855,4.602-16.342,13.772-17.189c3.417-0.316,49.624-1.064,112.922-1.064c48.627,0,118.956,0.411,177.848,2.439
	c65.789,2.269,88.785,5.707,96.787,7.725c2.908,0.73,5.239,3.021,5.938,6.016c0.861,3.688,0.973,8.737,0.278,14.661
	c-1.793,15.262-8.477,31.648-13.11,35.599c-2.97,0.856-20.735,3.619-125.869,3.619H280.539z"/>
</svg>
