<?xml version="1.0" encoding="utf-8"?>
<!-- Generator: Adobe Illustrator 16.0.0, SVG Export Plug-In . SVG Version: 6.00 Build 0)  -->
<!DOCTYPE svg PUBLIC "-//W3C//DTD SVG 1.1//EN" "http://www.w3.org/Graphics/SVG/1.1/DTD/svg11.dtd">
<svg version="1.1" id="Слой_1" xmlns="http://www.w3.org/2000/svg" xmlns:xlink="http://www.w3.org/1999/xlink" x="0px" y="0px"
	 width="440px" height="90px" viewBox="0 0 440 90" enable-background="new 0 0 440 90" xml:space="preserve">
<path opacity="0.5" fill="#BA7C2B" d="M23.093,6.259C13.44,7.15,4.284,8.311,4.284,28.998c0,20.688,3.323,50.443,30.944,53.07
	c27.393,2.605,365.997,7.402,376.543-0.236c10.545-7.639,22.917-50.48,12.011-63.348C409.508,1.645,34.71,5.188,23.093,6.259z"/>
<path fill="#FDE1B0" d="M21.271,2.721C11.368,3.612,1.975,4.772,1.975,25.461c0,20.688,3.408,50.442,31.744,53.069
	c28.1,2.606,370.328,7.402,381.145-0.236s23.509-50.479,12.321-63.347C412.543-1.894,33.188,1.649,21.271,2.721z"/>
<path fill="#FBAB2B" d="M282.904,76.737c-106.685,0-232.949-2.416-248.66-3.872C16.111,71.184,7.665,56.121,7.665,25.461
	c0-15.803,4.717-16.228,14.116-17.073c3.503-0.314,50.863-1.03,115.742-1.03c49.841,0,121.925,0.424,182.288,2.446
	c67.431,2.261,91.001,5.696,99.203,7.706c2.981,0.729,5.371,3.016,6.087,5.999c0.882,3.676,0.997,8.711,0.285,14.614
	c-1.837,15.212-8.688,31.307-13.438,35.244c-3.044,0.854-21.253,3.37-129.01,3.37H282.904z"/>
</svg>
