<?xml version="1.0" encoding="utf-8"?>
<!-- Generator: Adobe Illustrator 19.1.0, SVG Export Plug-In . SVG Version: 6.00 Build 0)  -->
<svg version="1.1" id="Слой_1" xmlns="http://www.w3.org/2000/svg" xmlns:xlink="http://www.w3.org/1999/xlink" x="0px" y="0px"
	 viewBox="-259 236 440 90" style="enable-background:new -259 236 440 90;" xml:space="preserve">
<style type="text/css">
	.st0{opacity:0.5;fill:#BA7C2B;enable-background:new    ;}
	.st1{fill:#FDE1B0;}
	.st2{fill:url(#SVGID_1_);}
</style>
<path class="st0" d="M-235.9,242.3c-9.7,0.9-18.8,2.1-18.8,22.7c0,20.7,3.3,50.4,30.9,53.1c27.4,2.6,366,7.4,376.5-0.2
	c10.5-7.6,22.9-50.5,12-63.3C150.5,237.6-224.3,241.2-235.9,242.3z"/>
<path class="st1" d="M-237.7,238.7c-9.9,0.9-19.3,2.1-19.3,22.7c0,20.7,3.4,50.4,31.7,53.1c28.1,2.6,370.3,7.4,381.1-0.2
	s23.5-50.5,12.3-63.3C153.5,234.1-225.8,237.6-237.7,238.7z"/>
<linearGradient id="SVGID_1_" gradientUnits="userSpaceOnUse" x1="-42.2422" y1="244.3333" x2="-42.2422" y2="304.6676">
	<stop  offset="0" style="stop-color:#FEAC29"/>
	<stop  offset="1" style="stop-color:#F9980D"/>
</linearGradient>
<path class="st2" d="M23.9,312.7c-106.7,0-232.9-2.4-248.7-3.9c-18.1-1.7-26.6-16.7-26.6-47.4c0-15.8,4.7-16.2,14.1-17.1
	c3.5-0.3,50.9-1,115.7-1c49.8,0,121.9,0.4,182.3,2.4c67.4,2.3,91,5.7,99.2,7.7c3,0.7,5.4,3,6.1,6c0.9,3.7,1,8.7,0.3,14.6
	c-1.8,15.2-8.7,31.3-13.4,35.2C149.9,310.2,131.7,312.7,23.9,312.7C23.9,312.7,23.9,312.7,23.9,312.7z"/>
</svg>
