<?xml version="1.0" encoding="utf-8"?>
<!-- Generator: Adobe Illustrator 16.0.0, SVG Export Plug-In . SVG Version: 6.00 Build 0)  -->
<!DOCTYPE svg PUBLIC "-//W3C//DTD SVG 1.1//EN" "http://www.w3.org/Graphics/SVG/1.1/DTD/svg11.dtd">
<svg version="1.1" id="Слой_1" xmlns="http://www.w3.org/2000/svg" xmlns:xlink="http://www.w3.org/1999/xlink" x="0px" y="0px"
	 width="210px" height="90px" viewBox="0 0 210 90" enable-background="new 0 0 210 90" xml:space="preserve">
<g>
	<g>
		<path fill="#FFFFFF" d="M30.409,53.346v5.731h-5.732c-1.104,0-2,0.896-2,2s0.896,2,2,2h5.732v5.731c0,1.104,0.896,2,2,2
			s2-0.896,2-2v-5.731h5.731c1.104,0,2-0.896,2-2s-0.896-2-2-2h-5.731v-5.731c0-1.104-0.896-2-2-2S30.409,52.241,30.409,53.346z"/>
		<path fill="#FFFFFF" d="M111.824,53.346v5.731h-5.731c-1.104,0-2,0.896-2,2s0.896,2,2,2h5.731v5.731c0,1.104,0.896,2,2,2
			c1.105,0,2-0.896,2-2v-5.731h5.732c1.104,0,2-0.896,2-2s-0.896-2-2-2h-5.732v-5.731c0-1.104-0.895-2-2-2
			C112.721,51.346,111.824,52.241,111.824,53.346z"/>
		<path fill="#FFFFFF" d="M184.324,54.346v5.731h-5.731c-1.104,0-2,0.896-2,2s0.896,2,2,2h5.731v5.731c0,1.104,0.896,2,2,2
			c1.105,0,2-0.896,2-2v-5.731h5.732c1.104,0,2-0.896,2-2s-0.896-2-2-2h-5.732v-5.731c0-1.104-0.895-2-2-2
			C185.221,52.346,184.324,53.241,184.324,54.346z"/>
		<path fill="#FFFFFF" d="M62.424,44.904L35.758,20.483c-0.9-0.824-2.09-1.278-3.349-1.278c-1.26,0-2.449,0.454-3.35,1.278
			L2.394,44.904c-0.755,0.692-1.008,1.747-0.642,2.687c0.383,0.987,1.338,1.625,2.434,1.625h1.201v33.089
			c0,3.584,3.137,6.5,6.991,6.5h40.061c3.855,0,6.991-2.916,6.991-6.5V49.216h1.202c1.096,0,2.051-0.638,2.435-1.625
			C63.432,46.651,63.18,45.597,62.424,44.904z M59.028,46.216c-1.433,0-2.599,1.121-2.599,2.5v33.589c0,1.93-1.791,3.5-3.991,3.5
			H12.378c-2.2,0-3.991-1.57-3.991-3.5V48.716c0-1.379-1.165-2.5-2.598-2.5H5.404l25.682-23.52c0.69-0.633,1.955-0.633,2.646,0
			l25.682,23.52H59.028z"/>
	</g>
	<g>
		<path fill="none" stroke="#FFFFFF" stroke-width="3" stroke-linecap="round" stroke-linejoin="round" stroke-miterlimit="10" d="
			M149.61,51.646l-5.396-15.727c-0.686-2.033-2.688-3.419-4.833-3.419H88.269c-2.146,0-4.053,1.313-4.738,3.346L78.231,51.5h5.321
			c-0.002,0-0.053,0.269-0.053,0.333V82.97c0,2.762,2.272,4.53,5.034,4.53h50.581c2.762,0,5.385-1.769,5.385-4.53V51.833
			c0-0.064,0,0.063,0,0L149.61,51.646z"/>
	</g>
	<path fill="none" stroke="#FFFFFF" stroke-width="3" stroke-linecap="round" stroke-linejoin="round" stroke-miterlimit="10" d="
		M203.356,44.5H198.5v-12h3.418l-15.53-30.916L170.856,32.5h2.644v12h-4.082c-2.762,0-5.918,1.77-5.918,4.531V82.97
		c0,2.762,3.156,5.53,5.918,5.53h33.938c2.762,0,4.144-2.769,4.144-5.53V49.031C207.5,46.27,206.118,44.5,203.356,44.5z"/>
</g>
</svg>
