<?xml version="1.0" encoding="utf-8"?>
<!-- Generator: Adobe Illustrator 16.0.0, SVG Export Plug-In . SVG Version: 6.00 Build 0)  -->
<!DOCTYPE svg PUBLIC "-//W3C//DTD SVG 1.1//EN" "http://www.w3.org/Graphics/SVG/1.1/DTD/svg11.dtd">
<svg version="1.1" id="Слой_1" xmlns="http://www.w3.org/2000/svg" xmlns:xlink="http://www.w3.org/1999/xlink" x="0px" y="0px"
	 width="205px" height="102px" viewBox="0 0 205 102" enable-background="new 0 0 205 102" xml:space="preserve">
<path opacity="0.5" fill="#BA7C2B" d="M13.684,4.528C9.231,4.98,5.006,5.568,5.006,16.046c0,10.479,1.534,25.549,14.273,26.879
	c12.636,1.32,168.817,3.749,173.681-0.12c4.864-3.868,10.57-25.568,5.54-32.084C191.918,2.191,19.041,3.986,13.684,4.528z"/>
<path fill="#FDE1B0" d="M12.843,2.736c-4.566,0.452-8.9,1.04-8.9,11.519c0,10.478,1.572,25.548,14.643,26.878
	c12.961,1.32,170.813,3.75,175.802-0.119c4.99-3.87,10.844-25.568,5.684-32.084C193.318,0.399,18.34,2.194,12.843,2.736z"/>
<path fill="#FBAB2B" d="M133.522,40.226c-49.209,0-107.449-1.224-114.695-1.962c-8.362-0.851-12.26-8.48-12.26-24.009
	c0-8.004,2.177-8.22,6.511-8.647c1.616-0.16,23.462-0.522,53.388-0.522c22.986,0,56.236,0.215,84.079,1.239
	c31.102,1.145,41.974,2.885,45.757,3.903c1.375,0.37,2.478,1.527,2.808,3.038c0.406,1.862,0.46,4.412,0.131,7.402
	c-0.847,7.705-4.224,15.287-6.414,17.282c-1.882,1.912-9.587,2.276-59.29,2.276H133.522z"/>
<path opacity="0.5" fill="#818181" d="M13.685,60.028c-4.453,0.452-8.678,1.04-8.678,11.518c0,10.479,1.534,25.549,14.273,26.88
	c12.636,1.319,168.816,3.748,173.681-0.121c4.864-3.867,10.57-25.567,5.54-32.084C191.918,57.691,19.041,59.486,13.685,60.028z"/>
<path fill="#E6E6E5" d="M12.843,58.236c-4.566,0.452-8.9,1.039-8.9,11.519c0,10.478,1.572,25.548,14.643,26.878
	c12.961,1.32,170.813,3.75,175.803-0.119c4.99-3.869,10.844-25.567,5.684-32.084C193.318,55.899,18.34,57.693,12.843,58.236z"/>
<path fill="#B4B4B4" d="M133.522,95.726c-49.209,0-107.449-1.224-114.695-1.962c-8.362-0.852-12.26-8.48-12.26-24.009
	c0-8.004,2.177-8.22,6.511-8.647c1.616-0.16,23.462-0.522,53.388-0.522c22.986,0,56.236,0.215,84.079,1.239
	c31.102,1.145,41.974,2.885,45.757,3.903c1.375,0.37,2.478,1.526,2.808,3.038c0.406,1.862,0.46,4.412,0.131,7.402
	c-0.847,7.704-4.224,15.287-6.414,17.281c-1.882,1.912-9.587,2.276-59.29,2.276H133.522z"/>
</svg>
